<?xml version="1.0" encoding="UTF-8" standalone="no"?>
<svg
   version="1.1"
   viewBox="0 0 256 256"
   id="svg1"
   sodipodi:docname="moon-6686.svg"
   inkscape:version="1.3.2 (091e20e, 2023-11-25)"
   xmlns:inkscape="http://www.inkscape.org/namespaces/inkscape"
   xmlns:sodipodi="http://sodipodi.sourceforge.net/DTD/sodipodi-0.dtd"
   xmlns="http://www.w3.org/2000/svg"
   xmlns:svg="http://www.w3.org/2000/svg">
  <defs
     id="defs1" />
  <sodipodi:namedview
     id="namedview1"
     pagecolor="#505050"
     bordercolor="#eeeeee"
     borderopacity="1"
     inkscape:showpageshadow="0"
     inkscape:pageopacity="0"
     inkscape:pagecheckerboard="0"
     inkscape:deskcolor="#505050"
     inkscape:zoom="0.921875"
     inkscape:cx="127.45763"
     inkscape:cy="127.45763"
     inkscape:window-width="1440"
     inkscape:window-height="900"
     inkscape:window-x="0"
     inkscape:window-y="0"
     inkscape:window-maximized="0"
     inkscape:current-layer="svg1" />
  <!-- Generator: Adobe Illustrator 28.6.0, SVG Export Plug-In . SVG Version: 1.2.0 Build 709)  -->
  <g
     id="g1">
    <g
       id="Layer_1">
      <path
         d="M132,254.5c-35,0-67.9-13.6-92.6-38.4-51.1-51.1-51.1-134.2,0-185.3,12.6-12.6,27.2-22.3,43.6-28.9,2.3-.9,8.4-2.3,9.9-.4,1.6,1.9-1.8,6.7-3.1,8.7-29.1,44.2-23,103.5,14.5,141h0c37.5,37.5,96.8,43.6,141,14.5,2.1-1.4,6.8-4.8,8.7-3.2,1.9,1.6.5,7.7-.4,10-6.6,16.4-16.3,31-28.9,43.6-24.7,24.7-57.6,38.4-92.6,38.4Z"
         id="path1" />
    </g>
  </g>
</svg>
